<svg width="49" height="46" viewBox="0 0 49 46" fill="none" xmlns="http://www.w3.org/2000/svg">
<rect x="7" width="42" height="44.48" rx="6" fill="#D9D9D9"/>
<mask id="mask0_12_2" style="mask-type:luminance" maskUnits="userSpaceOnUse" x="0" y="0" width="49" height="45">
<path d="M49 0H0V44.4751H49V0Z" fill="white"/>
</mask>
<g mask="url(#mask0_12_2)">
<path d="M35.6896 34.3548H41.2394C43.3149 34.3548 44.7587 33.4018 44.7587 31.4502C44.7587 29.4988 43.3149 28.5458 41.2394 28.5458H35.6896V34.3548ZM35.6896 44.4751H43.0893C47.0147 44.4751 49.0451 42.4329 49.0451 38.4846V34.3548H48.9098C47.7817 37.804 44.849 38.8477 41.3748 38.8477H35.8701C35.7349 38.8477 35.6896 38.893 35.6896 39.0292V44.4751ZM25.267 31.4502L30.9522 36.987V25.9136L25.267 31.4502ZM5.9558 44.4751H30.9522V43.2044C30.9522 40.9807 31.7192 39.71 33.4788 39.0292V38.893H26.4853C26.1243 38.893 25.9889 38.8477 25.7183 38.5754L22.0636 34.7632L18.2734 38.6208C18.0929 38.8023 17.9577 38.893 17.5967 38.893H11.9567C11.6409 38.893 11.6409 38.7115 11.8214 38.5299L19.0406 31.4957L11.686 24.3251C11.5055 24.1436 11.5506 23.9621 11.8665 23.9621H17.5516C17.8674 23.9621 18.0028 24.0076 18.1832 24.2344L22.1537 28.2281L25.8988 24.2344C26.0793 24.0529 26.2145 23.9621 26.4853 23.9621H41.3297C44.7587 23.9621 47.7817 25.0966 48.9098 28.5458H49.0451V5.99053C49.0451 2.04222 47.0147 0 43.0893 0H5.9558C2.03038 0 0 2.04222 0 5.99053V38.5299C0 42.4329 2.03038 44.4751 5.9558 44.4751Z" fill="#005779"/>
</g>
</svg>
