<svg width="128" height="32" viewBox="0 0 128 32" fill="none" xmlns="http://www.w3.org/2000/svg">
<path d="M67.9532 7.8543C68.3732 7.8543 69.308 7.91149 70.281 7.91149C70.3954 7.91149 70.5669 8.04494 70.6813 8.15932C70.9673 8.50247 71.4446 9.07506 72.1887 10.048C73.0473 11.1353 77.2447 15.7147 78.5227 17.1071C78.6371 17.2214 78.7133 17.0308 78.7133 16.9736C78.8086 16.3629 78.7515 14.3026 78.7515 11.5554C78.7515 10.9066 78.7133 10.2386 78.6561 9.64766C78.6371 9.24664 78.5036 8.78911 77.4544 8.4834C77.0725 8.3697 76.939 8.21651 76.939 8.064C76.939 7.93055 77.2059 7.89243 77.4354 7.89243C77.931 7.89243 78.4655 7.91149 79.0762 7.91149C79.7625 7.91149 80.3732 7.83455 80.8696 7.83455C81.1937 7.83455 81.308 7.89243 81.308 8.04494C81.308 8.15932 81.1937 8.33089 80.8505 8.42621C80.0301 8.61753 79.6863 8.78911 79.6291 9.81923C79.5909 10.5055 79.4194 14.2645 79.4194 17.5455C79.4194 18.3469 79.5528 19.778 79.5528 20.0837C79.5528 20.2737 79.4575 20.4841 79.2859 20.4841C79.019 20.4841 78.5989 20.1028 78.4274 19.8734C78.1033 19.473 77.7594 18.9767 77.2447 18.3469C75.4514 16.2104 72.1506 12.4902 70.4335 10.43C70.3572 10.3346 70.2238 10.3728 70.2238 10.4681C70.2047 10.9828 70.1469 11.5173 70.1278 13.0056C70.1278 14.7227 70.0713 17.6606 70.1094 18.2516C70.1857 19.1299 70.3954 19.4158 71.3111 19.6827C71.7115 19.778 71.7877 19.9115 71.7877 20.0259C71.7877 20.2165 71.5399 20.2737 71.1777 20.2737C70.6241 20.2737 69.8228 20.1791 69.1358 20.1791C68.7164 20.1791 68.2207 20.2165 67.896 20.2165C67.6291 20.2165 67.4003 20.1974 67.4003 20.0068C67.4003 19.8543 67.5909 19.7399 67.7816 19.6827C68.6783 19.3777 69.0405 19.3008 69.1167 17.8894C69.2127 16.3438 69.4796 11.7651 69.4796 10.1814C69.4796 9.49447 69.3843 9.32358 69.3462 9.2657C68.8117 8.6366 68.602 8.61753 67.7435 8.38808C67.5338 8.33089 67.3234 8.23557 67.3234 8.08306C67.3234 7.93055 67.5147 7.8543 67.9532 7.8543Z" fill="white"/>
<path d="M88.5162 7.91149C89.146 7.91149 89.9855 7.89242 90.2714 7.8543C90.3286 7.83523 90.4239 7.96868 90.443 8.064C90.443 8.94162 90.4811 9.49515 90.4811 9.87642C90.4811 10.1433 90.3667 10.3728 90.1952 10.3728C90.0236 10.3728 89.9276 10.1052 89.8895 9.91455C89.6416 8.90349 89.2222 8.71285 88.6115 8.61753C88.1158 8.5406 86.7419 8.50247 85.9024 8.54059C85.8643 8.54059 85.6546 8.63659 85.6164 9.07506C85.5783 9.55166 85.5211 13.1391 85.5593 13.425C85.5783 13.5013 85.5974 13.6157 85.6927 13.6157H86.9325C88.7259 13.6157 88.8021 13.5394 89.146 12.6618C89.2604 12.3758 89.3747 12.2614 89.4891 12.2614C89.6226 12.2614 89.6607 12.5283 89.6416 12.6808C89.6035 13.2153 89.5844 13.5966 89.5844 14.0548C89.5844 14.5695 89.6226 14.8371 89.6416 15.2184C89.6607 15.5615 89.5654 15.7719 89.4319 15.7719C89.2985 15.7719 89.165 15.5615 89.1078 15.3518C88.8403 14.4742 88.764 14.417 87.6004 14.3598C86.9897 14.3217 86.2265 14.3217 85.7118 14.3217C85.6355 14.3217 85.5395 14.4551 85.5395 14.4933C85.4639 14.8936 85.483 16.6686 85.483 17.489C85.483 18.0419 85.5593 18.767 85.6736 19.072C85.7499 19.3008 85.9024 19.454 86.0358 19.4921C86.3599 19.5493 87.0088 19.6255 87.772 19.6255C88.0008 19.6255 89.165 19.6065 89.5844 19.4921C90.1952 19.3396 90.7099 18.9767 91.1681 18.08C91.3778 17.6606 91.4922 17.5462 91.6066 17.5462C91.7407 17.5462 91.7979 17.8512 91.7591 18.0609C91.7407 18.2134 91.2062 19.9306 91.0728 20.1028C91.0156 20.1791 90.844 20.3316 90.748 20.3316C90.5383 20.3316 87.6576 20.1791 84.5475 20.1791C83.5364 20.1791 83.117 20.2737 82.3919 20.2737C82.0297 20.2737 81.8193 20.2363 81.8193 20.0259C81.8193 19.8924 82.0488 19.7971 82.3538 19.7209C83.3077 19.4921 83.6699 19.3586 83.7468 18.3278C83.804 17.5271 83.8993 15.2756 83.8993 12.9096C83.8993 10.6397 83.9184 10.2386 83.8803 9.68579C83.8421 8.8463 83.6515 8.61753 82.812 8.42689C82.411 8.33089 82.2585 8.25464 82.2585 8.10213C82.2585 7.93055 82.5254 7.83523 82.793 7.83523C83.689 7.83523 84.4331 7.91149 85.7118 7.91149H88.5162Z" fill="white"/>
<path d="M106.777 14.3979C106.148 14.4558 104.565 14.436 103.801 14.4558C103.725 14.4558 103.687 14.3979 103.706 14.3216C103.859 13.7307 104.851 11.0597 105.194 10.1433C105.251 10.0098 105.289 10.0289 105.346 10.1433C105.519 10.4108 106.511 13.2724 106.835 14.2454C106.854 14.3026 106.796 14.3979 106.777 14.3979ZM111.605 19.7017C110.746 19.492 110.44 19.3395 109.811 17.7749C109.487 16.9926 108.056 13.2153 107.064 10.4299C106.701 9.43789 106.377 8.57866 106.225 8.06393C106.071 7.64453 105.995 7.56759 105.919 7.56759C105.824 7.56759 105.747 7.66359 105.614 7.8161L105.156 8.57865C105.079 8.73185 105.041 8.84623 105.022 8.90342C104.984 9.0178 104.965 9.13219 104.851 9.39976C104.228 10.9106 102.778 14.7227 101.955 16.8061C101.73 17.3766 101.192 18.3815 101.079 18.515C100.442 19.2701 100.11 19.347 99.4099 19.4348C99.0661 19.492 98.3743 19.492 97.7064 19.492C96.581 19.492 95.0545 19.3967 94.8639 19.2816C94.7686 19.2251 94.7304 19.1107 94.7876 19.0338C95.2833 18.2706 98.2218 13.6537 100.149 10.754C100.969 9.5904 101.598 8.67466 101.847 8.42683C102.018 8.19738 102.056 8.0258 102.056 7.94955C102.056 7.87329 101.961 7.83517 101.732 7.85423C101.312 7.89236 98.966 7.91142 97.5348 7.91142C96.3522 7.91142 95.0354 7.89236 94.5207 7.87329C94.0053 7.83517 93.7766 7.79704 93.5662 7.56759C93.4899 7.49134 93.3183 7.41576 93.2611 7.41576C93.1468 7.41576 93.0324 7.5104 93.0133 7.64453C92.8227 8.48402 92.3073 9.72385 92.2501 9.91449C92.0976 10.3918 92.2501 10.5633 92.3645 10.5633C92.4788 10.5633 92.632 10.449 92.7846 10.1433C93.3374 9.13219 93.9291 8.82717 94.5017 8.69372C94.7686 8.63653 95.5699 8.5984 95.894 8.5984C96.6572 8.5984 98.6222 8.61746 99.3473 8.69372C99.4235 8.71278 99.5189 8.8081 99.4235 8.96061C98.966 9.8001 93.7003 17.813 92.9943 18.7288C92.5742 19.3198 92.1738 19.778 92.1738 19.9305C92.1738 20.0837 92.3645 20.1981 92.4979 20.1981H94.3103C95.0627 20.1981 97.7234 20.1994 99.6135 20.2151C99.6509 20.2178 101.521 20.179 101.683 20.179C102.389 20.179 102.867 20.2362 103.191 20.2362C103.439 20.2362 103.725 20.179 103.725 19.9877C103.725 19.8549 103.535 19.7398 103.21 19.6445C102.351 19.3776 102.275 19.0529 102.275 18.8241C102.275 18.3468 102.771 16.7257 103.267 15.4859C103.305 15.4287 103.4 15.3327 103.477 15.3327C103.878 15.2755 105.557 15.2564 106.606 15.2564C107.159 15.2564 107.236 15.3708 107.255 15.4478C107.693 16.6685 108.17 17.9274 108.323 18.7097C108.399 19.1107 108.475 19.492 107.56 19.6827C107.217 19.7398 107.101 19.8924 107.101 19.9877C107.101 20.0837 107.217 20.2171 107.693 20.2171C108.17 20.2171 108.437 20.179 109.048 20.179C109.888 20.179 110.822 20.2743 111.451 20.2743C111.929 20.2743 112.062 20.1599 112.062 20.0258C112.062 19.8924 111.91 19.797 111.605 19.7017Z" fill="white"/>
<path d="M66.8272 17.5459C66.7128 17.5459 66.5984 17.6603 66.3887 18.0797C65.9305 18.977 65.4158 19.3392 64.805 19.4917C64.385 19.6068 63.2214 19.6259 62.9926 19.6259C62.2294 19.6259 61.5805 19.5489 61.2564 19.4917C61.123 19.4536 60.9698 19.3011 60.8942 19.0723C60.7792 18.7666 60.7029 18.0422 60.7029 17.4887C60.7029 16.6683 60.6838 14.894 60.7601 14.4936C60.7601 14.4555 60.8554 14.322 60.9317 14.322C61.4471 14.322 62.2103 14.322 62.8204 14.3595C63.9846 14.4167 64.0609 14.4746 64.3278 15.3522C64.385 15.5619 64.5184 15.7716 64.6525 15.7716C64.786 15.7716 64.8813 15.5619 64.8622 15.2187C64.8432 14.8368 64.805 14.5699 64.805 14.0545C64.805 13.5969 64.8241 13.215 64.8622 12.6812C64.8813 12.5287 64.8432 12.2611 64.7097 12.2611C64.5953 12.2611 64.4803 12.3755 64.3659 12.6621C64.0227 13.5397 63.9465 13.616 62.1531 13.616H60.9133C60.8173 13.616 60.7982 13.5016 60.7792 13.4247C60.741 13.1387 60.7982 9.552 60.8364 9.07541C60.8745 8.63626 61.0849 8.54094 61.123 8.54094C61.9618 8.50281 63.3358 8.54094 63.8321 8.6172C64.4421 8.71251 64.8622 8.90383 65.1101 9.9149C65.1482 10.1055 65.2435 10.3724 65.4158 10.3724C65.5873 10.3724 65.7017 10.1437 65.7017 9.87677C65.7017 9.49481 65.6636 8.94196 65.6636 8.06366C65.6445 7.96834 65.5492 7.8349 65.4913 7.85464C65.2054 7.89277 64.3659 7.91115 63.7368 7.91115H60.9317H55.7279C55.0798 7.91115 54.6406 7.87371 54.2021 7.87371C53.8971 7.87371 53.6486 7.96834 53.6486 8.10247C53.6486 8.21685 53.8011 8.36937 54.0687 8.44562C54.8891 8.69345 55.4038 8.9229 54.9463 9.99115C54.0878 12.0514 52.0078 16.9549 51.8553 17.3552C51.7981 17.4887 51.7027 17.3743 51.6646 17.3362C50.9776 15.6953 48.9174 10.3534 48.5933 9.36137C48.5164 9.05566 48.4782 8.63626 49.4893 8.44562C49.8522 8.38843 49.9475 8.23592 49.9475 8.10247C49.9475 7.96834 49.7378 7.87371 49.4893 7.87371C49.0508 7.87371 48.2685 7.91115 47.6013 7.91115C46.6658 7.91115 45.9795 7.81583 45.5975 7.81583C45.3116 7.81583 45.0256 7.91115 45.0256 8.06366C45.0256 8.23592 45.2353 8.31217 45.4641 8.38843C46.3036 8.63626 46.7046 9.11354 47.0859 10.0674C47.3718 10.7537 49.1843 15.3712 49.8331 17.1067C50.3867 18.4997 50.7107 19.664 50.8251 20.2169C50.8633 20.4266 51.0158 20.5607 51.1301 20.5607C51.3215 20.5607 51.4549 20.3503 51.5312 20.1406C51.9696 18.6904 52.2181 18.2138 53.3245 15.5237C54.4881 12.6431 54.9654 11.8226 55.843 9.9149C56.1371 9.29805 56.421 8.94128 56.7608 8.63081C56.8207 8.57566 57.0386 8.53685 57.1155 8.52596C57.33 8.496 57.9148 8.52596 57.9148 8.52596C58.2185 8.5246 58.5119 8.52868 58.7625 8.53958C58.8224 8.56477 58.9116 8.61175 58.9422 8.63762C58.9463 8.64171 58.9497 8.64647 58.9538 8.65056C59.0028 8.71524 59.0512 8.816 59.077 8.96715C59.0947 9.14213 59.0866 9.37498 59.1002 9.68545C59.1383 10.239 59.1193 10.6393 59.1193 12.91C59.1193 15.2759 59.0239 17.5268 58.9667 18.3282C58.8905 19.3583 58.5283 19.4917 57.5744 19.7205C57.2687 19.7968 57.0399 19.8928 57.0399 20.0262C57.0399 20.2359 57.2496 20.274 57.6125 20.274C58.3376 20.274 58.757 20.1787 59.7681 20.1787C62.8782 20.1787 65.7589 20.3312 65.9686 20.3312C66.0639 20.3312 66.2355 20.1787 66.2934 20.1025C66.4268 19.9309 66.9606 18.2138 66.9797 18.0613C67.0178 17.8509 66.9606 17.5459 66.8272 17.5459Z" fill="white"/>
<path fill-rule="evenodd" clip-rule="evenodd" d="M33.3709 6.75479C33.3709 6.75479 33.2225 7.12177 33.121 7.14015C33.0196 7.15854 32.3523 6.75479 32.3523 6.75479H33.3709ZM37.1482 30.3034C36.8759 28.2241 35.2296 29.2814 35.107 29.1303C34.9825 28.9771 34.4487 27.1156 34.2362 26.2047C34.0946 25.5967 33.9326 24.9859 33.695 24.4372L33.697 24.4351C33.072 22.3286 33.4716 20.237 34.5345 18.4573C37.1373 14.0957 33.5404 11.9973 33.0468 11.2838C32.9896 11.2014 33.6888 8.00688 36.4579 9.74577C36.4953 9.76892 37.712 8.0062 34.8068 7.13062C34.6883 7.09454 34.6883 6.08688 33.0945 5.69743C30.7659 5.1296 28.6097 5.52654 27.9459 5.67769C27.8553 5.69811 27.8247 5.81113 27.8921 5.87445L28.6955 6.62883C28.7356 6.66696 28.7452 6.72483 28.7159 6.77181C28.5511 7.03462 27.9996 7.94968 27.4257 9.27939C27.3236 9.51632 27.201 9.94321 27.0866 10.3912C27.058 10.5008 26.9076 10.509 26.866 10.4035C26.4909 9.44007 26.2982 8.52636 25.8802 8.23836C24.0187 7.03053 21.8413 6.74322 20.1038 5.357C20.0303 5.29845 19.9179 5.34611 19.9159 5.44075C19.8914 6.46747 20.2768 7.021 20.848 7.3839C21.456 7.76926 22.5113 8.09947 23.4727 8.51275C23.6865 8.59581 23.9288 8.69998 24.2311 8.84909C24.4796 8.97164 25.5234 9.33249 25.6412 10.5921C25.6848 11.0625 25.7474 11.5078 25.8284 11.9306C26.3213 14.2537 27.1554 14.9039 27.9969 15.2171C28.4122 15.371 28.8262 15.4459 29.1775 15.6147C29.377 15.6916 29.5595 15.821 29.7086 16.0327L29.7106 16.0348C29.731 16.0641 29.7515 16.092 29.7705 16.1247C29.9244 16.3582 30.0381 16.6734 30.0939 17.1194C30.3717 19.3424 30.4848 21.6028 30.928 23.8006C30.947 23.8952 32.7431 28.4562 33.3756 30.0045C33.4955 30.2973 33.7801 30.4886 34.0967 30.4886L36.752 30.4886C36.6628 30.2816 36.5198 29.9575 36.483 29.8377C36.4776 29.8193 36.5239 29.8316 36.5239 29.8316C36.5287 29.8356 36.8616 30.2768 36.9726 30.4886H37.0311C37.1292 30.4804 37.1734 30.3919 37.1482 30.3034Z" fill="white"/>
<path fill-rule="evenodd" clip-rule="evenodd" d="M16.3926 12.4786C16.6152 13.8866 18.4065 14.3891 19.8935 14.3891H19.8942C20.4484 14.3891 21.0053 14.3244 21.5085 14.2026C21.2811 13.8226 21.0762 13.4209 20.8978 13.0077C19.6062 12.9811 17.0462 12.6774 16.3926 12.4786Z" fill="white"/>
<path fill-rule="evenodd" clip-rule="evenodd" d="M20.0982 10.5189C19.9791 10.0056 19.8756 9.45886 19.7912 8.89239C15.3507 7.28967 13.8705 6.62175 13.176 5.51673C13.046 6.23707 13.174 6.89886 13.5573 7.48507C14.4179 8.80116 16.5578 9.79384 20.0982 10.5189Z" fill="white"/>
<path fill-rule="evenodd" clip-rule="evenodd" d="M19.7282 8.43642C19.6254 7.63779 19.5593 6.82008 19.5321 6.00306C19.2237 5.87983 18.9248 5.76545 18.6347 5.65515C16.1333 4.70196 14.3147 4.00885 13.8402 0.68085C13.2063 2.31966 13.1273 3.56834 13.591 4.59847C14.3256 6.23047 16.3981 7.24493 19.7282 8.43642Z" fill="white"/>
<path fill-rule="evenodd" clip-rule="evenodd" d="M14.0284 8.96483C14.1115 11.9626 18.2095 12.5046 20.7171 12.555C20.5217 12.047 20.3488 11.503 20.2024 10.9345C16.7076 10.2108 14.633 9.549 14.0284 8.96483Z" fill="white"/>
<path fill-rule="evenodd" clip-rule="evenodd" d="M19.2626 14.9541C19.4661 15.7303 20.3281 15.848 20.8306 15.848C21.3467 15.848 21.9438 15.7255 22.4782 15.5103C22.2093 15.223 21.9581 14.9017 21.713 14.5299C20.9225 14.7308 19.618 14.9214 19.2626 14.9541Z" fill="white"/>
<path fill-rule="evenodd" clip-rule="evenodd" d="M21.1342 16.4206C21.0777 16.4396 21.026 16.4573 20.9803 16.473C21.1921 16.7378 21.4992 16.872 21.8947 16.872C22.3557 16.872 22.916 16.6793 23.4403 16.3429C23.2101 16.1829 22.982 15.9957 22.7458 15.771C22.2127 16.0563 21.5393 16.2837 21.1342 16.4206Z" fill="white"/>
<path fill-rule="evenodd" clip-rule="evenodd" d="M22.4148 17.3215C22.5775 17.504 22.7872 17.5959 23.0391 17.5959C23.4497 17.5959 23.9692 17.344 24.4716 16.9021C24.2184 16.798 23.9637 16.6666 23.6962 16.5018C23.2488 16.8368 22.7341 17.1527 22.4148 17.3215Z" fill="white"/>
<path fill-rule="evenodd" clip-rule="evenodd" d="M24.2558 17.9043C24.7283 17.9043 25.1974 17.5353 25.4772 17.1963C25.2035 17.1411 24.9482 17.0723 24.7167 16.9906C24.4164 17.3209 24.0753 17.6524 23.8806 17.8199C23.9991 17.8757 24.125 17.9043 24.2558 17.9043Z" fill="white"/>
<path fill-rule="evenodd" clip-rule="evenodd" d="M13.3573 20.9729C13.6276 18.2992 17.2572 17.6374 17.9673 19.057C18.0197 19.1618 17.1258 19.8338 17.0502 20.3839C16.9229 21.3031 17.1714 22.5184 17.3226 22.6457C17.3648 22.6811 17.8706 21.3725 18.9294 20.7809C19.7511 20.3213 19.1711 19.4675 19.0894 19.1673C18.5508 17.1805 14.3357 16.8912 12.8453 19.3109C12.2747 20.2369 11.9493 21.619 12.6676 23.4947C13.3287 25.2214 15.1404 26.1759 17.0863 26.2808C17.0945 26.1889 17.1108 26.0976 17.138 26.0078C17.2313 25.6966 17.3518 25.3855 17.4941 25.0764C17.4553 25.0791 17.4165 25.0811 17.3757 25.0838C15.922 25.1853 13.0645 23.8665 13.3573 20.9729Z" fill="white"/>
<path fill-rule="evenodd" clip-rule="evenodd" d="M29.3661 26.7325C30.2751 26.0714 30.4827 25.029 30.4487 24.1418C30.271 22.6324 29.4771 21.9556 28.5648 21.6894C26.397 21.0576 23.1997 22.902 22.8674 24.1902C22.8538 24.2433 22.8695 24.0554 22.8722 23.9709C22.8708 23.9287 22.877 23.8777 22.8953 23.8164C22.9103 23.7558 22.9239 23.6809 22.9614 23.6108C23.0233 23.4623 23.1193 23.288 23.2582 23.1117C23.3903 22.9285 23.5673 22.7468 23.7723 22.5616C24.5981 21.8433 25.9517 21.1182 27.4652 21.0365C27.8404 21.0256 28.2237 21.046 28.59 21.1488C28.9542 21.2475 29.3049 21.4089 29.5867 21.6438C29.8421 21.8569 30.0518 22.1074 30.1934 22.3743C30.0892 21.2387 29.9006 19.2799 29.6848 17.4559C29.5452 16.2725 29.0182 15.9784 28.4511 15.8933C28.0004 15.8259 27.4911 15.5726 27.3215 15.4828C26.9736 15.2874 26.6019 15.0068 26.3261 14.6045C25.697 13.6846 25.4063 12.4325 25.2688 10.964C25.1517 9.70438 24.1079 9.34352 23.8594 9.22097C22.6509 8.62591 22.4235 8.70148 21.1326 8.07918C20.189 7.62438 20.1583 7.37995 20.1583 7.37995C20.1583 7.37995 20.7166 16.7825 26.4433 16.7294C25.9462 17.5614 25.2872 18.2967 23.4741 19.5937C22.8334 20.052 21.3062 21.1556 21.3062 21.1556C21.3062 21.1556 21.3144 21.1522 21.3273 21.1468C19.8853 22.1857 18.6611 23.5897 17.9714 25.0596H17.9694C17.823 25.3714 17.6991 25.6867 17.6044 26.0026C17.5758 26.0972 17.5588 26.1932 17.5513 26.2906C17.4887 27.1389 18.1267 28.0737 18.0143 29.2005C17.953 29.8133 18.4657 30.4342 19.024 30.4887H24.4552H27.3815H29.4254C29.2899 30.1851 28.9781 29.5553 28.9161 29.3476C28.9073 29.3197 28.989 29.3394 28.989 29.3394C29.279 29.56 29.6235 30.2722 29.7284 30.4887H30.1233C30.3071 30.4887 30.4385 30.3117 30.3833 30.136C30.2376 29.6669 29.9415 28.9493 29.5901 28.5388C29.2987 28.1983 28.4606 27.9328 27.7158 28.0458C27.5741 28.0669 27.4223 28.1017 27.2664 28.1418C27.7389 27.5331 28.688 27.2254 29.3661 26.7325Z" fill="white"/>
<path d="M44.1257 29.2672C44.1257 30.031 44.0814 30.0753 43.6047 30.1528L43.394 30.1859C43.3165 30.2414 43.3275 30.4298 43.4161 30.463C43.8485 30.4408 44.1922 30.4298 44.5468 30.4298C44.8905 30.4298 45.2562 30.4408 45.6775 30.463C45.7662 30.4298 45.7773 30.2414 45.6997 30.1859L45.4891 30.1528C45.0125 30.0753 44.9682 30.031 44.9682 29.2672V26.7878C44.9682 26.024 45.0125 25.9796 45.4891 25.9022L45.6997 25.869C45.7773 25.8135 45.7662 25.6251 45.6775 25.5918C45.2452 25.6141 44.9015 25.6251 44.5468 25.6251C44.1922 25.6251 43.8485 25.6141 43.4161 25.5918C43.3275 25.6251 43.3165 25.8135 43.394 25.869L43.6047 25.9022C44.0814 25.9796 44.1257 26.024 44.1257 26.7878V29.2672Z" fill="white"/>
<path d="M51.6632 28.6141C51.6632 28.8799 51.6632 29.0348 51.5967 29.057C51.4747 28.9683 50.8318 28.271 50.5879 28.0276L49.5461 26.9537C49.0916 26.4889 48.6814 26.013 48.4597 25.5918C48.3267 25.6141 48.1715 25.6251 48.0164 25.6251C47.7836 25.6251 47.4843 25.6251 47.0631 25.5918C46.9633 25.6363 46.9633 25.8026 47.0409 25.869L47.2072 25.9022C47.318 25.9243 47.5286 25.9908 47.6174 26.0573C47.8389 26.2232 47.8501 26.3781 47.8501 26.7435V28.7248C47.8501 29.8206 47.7615 30.1195 47.4733 30.1528L47.1406 30.186C47.0631 30.2414 47.0631 30.4187 47.1517 30.463C47.5397 30.4408 47.7503 30.4298 48.0718 30.4298C48.3932 30.4298 48.6481 30.4408 49.0583 30.463C49.1471 30.4077 49.1692 30.2524 49.0804 30.186L48.7257 30.1528C48.3156 30.1195 48.2491 29.8318 48.2491 28.7248V27.2637C48.2491 26.9206 48.2491 26.7988 48.2934 26.7988C48.4375 26.9206 48.7257 27.2084 49.1471 27.6511L50.8318 29.4443C51.5191 30.1841 51.7408 30.4165 51.8627 30.5712C51.9625 30.5936 52.0623 30.5381 52.0955 30.4718C52.0623 30.3059 52.0623 29.4096 52.0623 29.1884V27.3295C52.0623 26.2342 52.151 25.9355 52.4392 25.9022L52.7717 25.869C52.8493 25.8135 52.8493 25.6473 52.7605 25.5918C52.4059 25.6141 52.162 25.6251 51.8406 25.6251C51.5191 25.6251 51.2642 25.6141 50.854 25.5918C50.7654 25.6473 50.7542 25.8026 50.8318 25.869L51.1865 25.9022C51.5967 25.9355 51.6632 26.223 51.6632 27.3295V28.6141Z" fill="white"/>
<path d="M55.8533 29.5872C55.9974 29.8971 56.1193 30.2511 56.2189 30.5388C56.2633 30.5721 56.3077 30.5833 56.3521 30.5833C56.4074 30.5833 56.4519 30.5721 56.485 30.5388C56.6181 30.1736 56.9395 29.3658 57.272 28.6576L58.1145 26.8539C58.4692 26.1014 58.5356 26.0018 58.8682 25.9355L59.1785 25.869C59.2562 25.8135 59.234 25.6363 59.1232 25.5918C58.9458 25.6141 58.6909 25.6251 58.3362 25.6251C58.0368 25.6251 57.7486 25.6141 57.4273 25.5918C57.3385 25.6584 57.3053 25.8026 57.4051 25.869L57.5824 25.9023C57.9149 25.9686 57.9261 26.0461 57.8484 26.2785C57.7376 26.5994 57.4273 27.363 57.1945 27.872C56.9838 28.3368 56.7954 28.8015 56.5738 29.2663C56.4074 28.9012 56.2189 28.4917 55.9419 27.861L55.3988 26.6327C55.1549 26.0904 55.1549 25.9465 55.4431 25.9023L55.6758 25.869C55.7756 25.8135 55.7645 25.6363 55.6758 25.5918C55.3212 25.6141 54.9996 25.6251 54.6006 25.6251C54.2569 25.6251 53.8913 25.6141 53.6031 25.5918C53.5144 25.6473 53.5254 25.8026 53.5919 25.869L53.9577 25.9577C54.2238 26.024 54.2681 26.0793 54.6006 26.8096L55.8533 29.5872Z" fill="white"/>
<path d="M60.6751 29.2668C60.6751 30.0315 60.6308 30.0982 60.1541 30.1535L59.8548 30.1868C59.7771 30.2414 59.7883 30.4298 59.8769 30.463C60.409 30.4417 60.7527 30.4305 61.1074 30.4305H62.0828C62.6814 30.4305 63.2688 30.4417 63.9672 30.4638C64.0891 30.2533 64.2442 29.6992 64.2997 29.2337C64.2666 29.1339 64.0891 29.1117 64.0115 29.1894C63.6901 30.0758 63.28 30.1092 62.5704 30.1092C61.9387 30.1092 61.7391 30.0648 61.6393 29.9541C61.5397 29.8321 61.5176 29.4886 61.5176 29.1561V28.3582C61.5176 28.1365 61.5176 28.1032 61.7281 28.1032H62.2491C62.8365 28.1032 62.892 28.192 62.9806 28.5243L63.0361 28.7349C63.0916 28.8125 63.2578 28.8014 63.3131 28.7127C63.291 28.3914 63.291 28.192 63.291 27.9148C63.291 27.6602 63.291 27.4616 63.3131 27.1416C63.2578 27.053 63.0916 27.042 63.0361 27.1195L62.9806 27.3292C62.892 27.6602 62.8365 27.7485 62.2491 27.7485H61.7281C61.5176 27.7485 61.5176 27.7265 61.5176 27.5279V26.3002C61.5176 25.957 61.5285 25.9458 61.9166 25.9458H62.4042C62.6702 25.9458 63.169 25.9458 63.3464 26.2115C63.4129 26.3111 63.4794 26.4551 63.546 26.743C63.6125 26.8204 63.7898 26.8094 63.8342 26.7208L63.7123 25.5918C63.6125 25.6133 63.169 25.6243 62.6814 25.6243H61.1074C60.7415 25.6243 60.3979 25.6133 60.0765 25.5911C59.9879 25.6354 59.9767 25.8239 60.0543 25.8682L60.2094 25.9015C60.6308 25.9901 60.6751 26.0233 60.6751 26.7873V29.2668Z" fill="white"/>
<path d="M67.204 28.421C67.8357 28.7423 67.9798 29.1082 67.9798 29.4627C67.9798 29.9725 67.614 30.2607 67.0487 30.2607C66.306 30.2607 65.8184 29.4739 65.7296 29.0749C65.6522 28.9751 65.4857 28.9862 65.4414 29.097C65.4414 29.6845 65.5745 30.0834 65.6743 30.2385C65.8294 30.3493 66.2729 30.5821 66.9489 30.5821C68.0463 30.5821 68.7558 30.0391 68.7558 29.1747C68.7558 28.4321 68.2571 27.9667 67.8579 27.7671L67.1707 27.4126C66.7274 27.1798 66.428 26.9359 66.428 26.537C66.428 26.1603 66.6719 25.7834 67.3258 25.7834C67.9798 25.7834 68.268 26.3487 68.3567 26.7365C68.4122 26.814 68.6117 26.803 68.6449 26.7144C68.6561 26.2377 68.5784 25.8166 68.4898 25.6283C68.1129 25.5617 67.8469 25.4619 67.4589 25.4619C66.3394 25.4619 65.7186 26.0272 65.7186 26.8363C65.7186 27.4569 66.1731 27.889 66.705 28.1661L67.204 28.421Z" fill="white"/>
<path d="M71.926 29.267C71.926 30.031 71.8817 30.0973 71.4049 30.1528L71.1057 30.1859C71.028 30.2414 71.0392 30.4298 71.1278 30.463C71.5935 30.4408 71.9925 30.4298 72.3472 30.4298C72.6908 30.4298 73.112 30.4408 73.5665 30.463C73.6551 30.4298 73.6663 30.2414 73.5886 30.1859L73.2894 30.1528C72.8128 30.0973 72.7683 30.031 72.7683 29.267V26.2337C72.7683 25.9458 72.8016 25.9458 73.0122 25.9458H73.389C74.0543 25.9458 74.3425 26.0344 74.4199 26.754C74.4643 26.8426 74.6528 26.8314 74.6972 26.743C74.675 26.3221 74.7193 25.7352 74.8079 25.447C74.7746 25.3915 74.686 25.3694 74.6084 25.4137C74.5197 25.6133 74.4421 25.6243 74.0321 25.6243H70.9504C70.5071 25.6243 70.352 25.6354 70.3408 25.4137C70.2965 25.3694 70.1856 25.3694 70.1412 25.4137C70.0859 25.6909 69.964 26.2447 69.842 26.7208C69.8864 26.8093 70.0083 26.8426 70.1191 26.7761C70.3851 26.0123 70.6734 25.9458 71.3496 25.9458H71.6931C71.9148 25.9458 71.926 25.9458 71.926 26.2337V29.267Z" fill="white"/>
<path d="M76.6369 29.2672C76.6369 30.031 76.5926 30.0753 76.116 30.1528L75.9052 30.1859C75.8278 30.2414 75.8387 30.4298 75.9274 30.463C76.3597 30.4408 76.7034 30.4298 77.0581 30.4298C77.4018 30.4298 77.7674 30.4408 78.1888 30.463C78.2774 30.4298 78.2886 30.2414 78.2109 30.1859L78.0003 30.1528C77.5237 30.0753 77.4794 30.031 77.4794 29.2672V26.7878C77.4794 26.024 77.5237 25.9796 78.0003 25.9022L78.2109 25.869C78.2886 25.8135 78.2774 25.6251 78.1888 25.5918C77.7564 25.6141 77.4128 25.6251 77.0581 25.6251C76.7034 25.6251 76.3597 25.6141 75.9274 25.5918C75.8387 25.6251 75.8278 25.8135 75.9052 25.869L76.116 25.9022C76.5926 25.9796 76.6369 26.024 76.6369 26.7878V29.2672Z" fill="white"/>
<path d="M81.869 27.1641C81.492 26.4336 81.2926 26.0793 81.2926 25.5918C80.9379 25.6251 80.705 25.6251 80.4834 25.6251C80.184 25.6251 79.9291 25.6141 79.6298 25.5918C79.5301 25.6363 79.5411 25.8135 79.6076 25.869L79.8737 25.9022C80.2505 25.9465 80.3724 26.1126 80.3724 26.4668C80.3724 27.2194 80.306 29.0016 80.2173 29.5992C80.1619 29.9867 80.1287 30.0973 79.7629 30.1528L79.5301 30.1859C79.4413 30.2414 79.4525 30.4187 79.5301 30.463C79.8737 30.4408 80.2062 30.4298 80.4501 30.4298C80.7495 30.4298 81.0708 30.4408 81.359 30.463C81.4367 30.4187 81.4477 30.2303 81.3702 30.1859L81.0043 30.1528C80.694 30.1195 80.6828 29.8761 80.6828 29.3115C80.6828 28.7691 80.694 28.3043 80.705 27.8615C80.7161 27.5514 80.7271 26.8099 80.7716 26.7546C80.8602 26.7878 81.093 27.3744 81.2149 27.6179L81.9355 29.0126C82.1239 29.3773 82.4676 30.0856 82.5895 30.484C82.656 30.5283 82.7446 30.5283 82.8001 30.484C82.922 30.1298 83.4985 28.979 83.5871 28.8129L84.2633 27.5401C84.4184 27.2524 84.7066 26.6992 84.7399 26.6992C84.7731 26.7211 84.7731 26.8872 84.7731 27.02V29.5772C84.7731 30.0199 84.7731 30.1085 84.4184 30.1528L84.1745 30.1859C84.0969 30.2303 84.108 30.4077 84.1857 30.463C84.496 30.4408 84.8396 30.4298 85.1611 30.4298C85.4381 30.4298 85.8705 30.4408 86.2696 30.463C86.3583 30.4187 86.3583 30.2303 86.2806 30.1859L85.9593 30.1528C85.6156 30.1195 85.6156 29.8539 85.5934 29.6104C85.5379 28.9462 85.5379 28.0054 85.5379 26.8321C85.5379 26.1789 85.5601 25.9686 86.07 25.9022L86.3139 25.869C86.3914 25.8135 86.3804 25.6251 86.2806 25.5918C85.9593 25.6141 85.6377 25.6251 85.3717 25.6251C85.1944 25.6251 84.9727 25.6141 84.7288 25.5918C84.5514 26.1126 84.496 26.3007 83.9639 27.319L83.4097 28.3817C83.1991 28.7802 82.9995 29.1344 82.9552 29.1566C82.9109 29.1232 82.6338 28.6251 82.5562 28.4814L81.869 27.1641Z" fill="white"/>
<path d="M88.3979 29.2668C88.3979 30.0315 88.3535 30.0982 87.8769 30.1535L87.5775 30.1868C87.4999 30.2414 87.5111 30.4298 87.5997 30.463C88.1318 30.4417 88.4755 30.4305 88.8302 30.4305H89.8056C90.4042 30.4305 90.9916 30.4417 91.69 30.4638C91.8119 30.2533 91.967 29.6992 92.0225 29.2337C91.9893 29.1339 91.8119 29.1117 91.7343 29.1894C91.4129 30.0758 91.0028 30.1092 90.2932 30.1092C89.6615 30.1092 89.4619 30.0648 89.3621 29.9541C89.2625 29.8321 89.2403 29.4886 89.2403 29.1561V28.3582C89.2403 28.1365 89.2403 28.1032 89.4509 28.1032H89.9719C90.5593 28.1032 90.6148 28.192 90.7034 28.5243L90.7589 28.7349C90.8143 28.8125 90.9806 28.8014 91.0359 28.7127C91.0137 28.3914 91.0137 28.192 91.0137 27.9148C91.0137 27.6602 91.0137 27.4616 91.0359 27.1416C90.9806 27.053 90.8143 27.042 90.7589 27.1195L90.7034 27.3292C90.6148 27.6602 90.5593 27.7485 89.9719 27.7485H89.4509C89.2403 27.7485 89.2403 27.7265 89.2403 27.5279V26.3002C89.2403 25.957 89.2513 25.9458 89.6393 25.9458H90.127C90.393 25.9458 90.8918 25.9458 91.0692 26.2115C91.1357 26.3111 91.2022 26.4551 91.2688 26.743C91.3353 26.8204 91.5125 26.8094 91.557 26.7208L91.4351 25.5918C91.3353 25.6133 90.8918 25.6243 90.4042 25.6243H88.8302C88.4643 25.6243 88.1206 25.6133 87.7993 25.5911C87.7106 25.6354 87.6995 25.8239 87.7771 25.8682L87.9322 25.9015C88.3535 25.9901 88.3979 26.0233 88.3979 26.7873V29.2668Z" fill="white"/>
<path d="M97.731 28.6141C97.731 28.8799 97.731 29.0348 97.6646 29.057C97.5426 28.9683 96.8997 28.271 96.6558 28.0276L95.6139 26.9537C95.1595 26.4889 94.7493 26.013 94.5276 25.5918C94.3946 25.6141 94.2393 25.6251 94.0842 25.6251C93.8515 25.6251 93.5521 25.6251 93.131 25.5918C93.0312 25.6363 93.0312 25.8026 93.1088 25.869L93.2751 25.9022C93.3859 25.9243 93.5964 25.9908 93.6852 26.0573C93.9068 26.2232 93.918 26.3781 93.918 26.7435V28.7248C93.918 29.8206 93.8293 30.1195 93.5411 30.1528L93.2084 30.186C93.131 30.2414 93.131 30.4187 93.2196 30.463C93.6076 30.4408 93.8182 30.4298 94.1397 30.4298C94.4611 30.4298 94.716 30.4408 95.1261 30.463C95.2149 30.4077 95.2371 30.2524 95.1483 30.186L94.7936 30.1528C94.3834 30.1195 94.317 29.8318 94.317 28.7248V27.2637C94.317 26.9206 94.317 26.7988 94.3613 26.7988C94.5054 26.9206 94.7936 27.2084 95.2149 27.6511L96.8997 29.4443C97.5869 30.1841 97.8087 30.4165 97.9306 30.5712C98.0304 30.5936 98.1302 30.5381 98.1634 30.4718C98.1302 30.3059 98.1302 29.4096 98.1302 29.1884V27.3295C98.1302 26.2342 98.2188 25.9355 98.507 25.9022L98.8396 25.869C98.9172 25.8135 98.9172 25.6473 98.8284 25.5918C98.4737 25.6141 98.2298 25.6251 97.9085 25.6251C97.5869 25.6251 97.332 25.6141 96.9219 25.5918C96.8332 25.6473 96.8221 25.8026 96.8997 25.869L97.2544 25.9022C97.6646 25.9355 97.731 26.223 97.731 27.3295V28.6141Z" fill="white"/>
<path d="M101.921 29.267C101.921 30.031 101.877 30.0973 101.4 30.1528L101.101 30.1859C101.023 30.2414 101.034 30.4298 101.123 30.463C101.589 30.4408 101.988 30.4298 102.342 30.4298C102.686 30.4298 103.107 30.4408 103.562 30.463C103.65 30.4298 103.661 30.2414 103.584 30.1859L103.285 30.1528C102.808 30.0973 102.763 30.031 102.763 29.267V26.2337C102.763 25.9458 102.797 25.9458 103.007 25.9458H103.384C104.049 25.9458 104.338 26.0344 104.415 26.754C104.459 26.8426 104.648 26.8314 104.692 26.743C104.67 26.3221 104.714 25.7352 104.803 25.447C104.77 25.3915 104.681 25.3694 104.603 25.4137C104.515 25.6133 104.437 25.6243 104.027 25.6243H100.946C100.502 25.6243 100.347 25.6354 100.336 25.4137C100.292 25.3694 100.181 25.3694 100.136 25.4137C100.081 25.6909 99.9591 26.2447 99.8372 26.7208C99.8815 26.8093 100.003 26.8426 100.114 26.7761C100.38 26.0123 100.668 25.9458 101.345 25.9458H101.688C101.91 25.9458 101.921 25.9458 101.921 26.2337V29.267Z" fill="white"/>
<path d="M108.428 25.4619C106.821 25.4619 105.69 26.5924 105.69 28.0665C105.69 29.4627 106.71 30.5821 108.428 30.5821C109.991 30.5821 111.121 29.496 111.121 27.9998C111.121 26.6479 110.212 25.4619 108.428 25.4619ZM108.35 25.7834C109.57 25.7834 110.135 26.9803 110.135 28.1661C110.135 29.6845 109.326 30.2607 108.483 30.2607C107.197 30.2607 106.676 29.0306 106.676 27.889C106.676 26.3264 107.552 25.7834 108.35 25.7834Z" fill="white"/>
<path d="M114.269 28.421C114.901 28.7423 115.045 29.1082 115.045 29.4627C115.045 29.9725 114.679 30.2607 114.114 30.2607C113.371 30.2607 112.884 29.4739 112.795 29.0749C112.718 28.9751 112.551 28.9862 112.507 29.097C112.507 29.6845 112.64 30.0834 112.74 30.2385C112.895 30.3493 113.338 30.5821 114.014 30.5821C115.112 30.5821 115.821 30.0391 115.821 29.1747C115.821 28.4321 115.322 27.9667 114.923 27.7671L114.236 27.4126C113.793 27.1798 113.493 26.9359 113.493 26.537C113.493 26.1603 113.737 25.7834 114.391 25.7834C115.045 25.7834 115.333 26.3487 115.422 26.7365C115.478 26.814 115.677 26.803 115.71 26.7144C115.721 26.2377 115.644 25.8166 115.555 25.6283C115.178 25.5617 114.912 25.4619 114.524 25.4619C113.405 25.4619 112.784 26.0272 112.784 26.8363C112.784 27.4569 113.239 27.889 113.77 28.1661L114.269 28.421Z" fill="white"/>
</svg>
