<svg version="1.1" id="Layer_1" xmlns="http://www.w3.org/2000/svg" xmlns:xlink="http://www.w3.org/1999/xlink" x="0px" y="0px"
	 width="100%" viewBox="0 0 171 198" enable-background="new 0 0 171 198" xml:space="preserve">
<path fill="#161C1E" opacity="1.000000" stroke="none" 
	d="
M83.000000,199.000000 
	C55.333336,199.000000 28.166670,199.000000 1.000004,199.000000 
	C1.000002,133.000000 1.000002,67.000008 1.000001,1.000013 
	C57.999989,1.000008 114.999977,1.000008 171.999969,1.000004 
	C171.999985,66.999985 171.999985,132.999969 172.000000,198.999969 
	C142.500000,199.000000 113.000000,199.000000 83.000000,199.000000 
M77.633789,99.904434 
	C83.416397,102.588432 89.199005,105.272430 95.551514,108.220940 
	C94.352753,109.723419 93.123520,111.927132 91.309296,113.419876 
	C84.503860,119.019379 77.670013,124.610634 70.542961,129.786591 
	C60.773186,136.881790 51.502312,144.371002 45.104744,154.859863 
	C40.773712,161.960602 38.257378,169.213440 41.465557,177.597641 
	C42.451168,180.173416 42.514927,183.144150 42.753513,185.955002 
	C43.291630,192.294724 45.561535,194.768494 51.783085,194.796265 
	C71.277596,194.883316 90.773293,194.899475 110.266731,194.732193 
	C112.241447,194.715240 114.203918,193.270279 116.058281,192.533218 
	C117.321587,193.071884 118.835907,193.796341 120.427567,194.248566 
	C120.556549,194.285202 121.651558,192.412079 121.558067,191.502380 
	C120.893311,185.033722 115.586487,179.851685 109.061394,179.087341 
	C107.629646,178.919632 106.190758,178.812897 104.755157,178.678085 
	C107.344971,175.824753 110.407326,174.051575 113.405037,172.175095 
	C120.931633,167.463638 124.162117,158.657562 121.612450,149.955612 
	C119.229134,141.821396 113.284195,137.578644 103.843056,137.688217 
	C95.780273,137.781784 88.548973,140.644333 81.905792,145.100754 
	C80.506035,146.039749 79.090561,146.955322 77.682327,147.881699 
	C77.437698,147.481857 77.193062,147.082031 76.948433,146.682205 
	C81.596016,141.174576 87.649460,137.638916 94.559113,135.610611 
	C103.712418,132.923645 112.542122,133.007797 120.881012,141.620026 
	C119.559349,129.864380 118.495926,119.795532 117.268593,109.746696 
	C116.655540,104.727226 113.829048,101.829712 108.699715,100.712296 
	C100.553795,98.937714 95.043152,93.780869 92.655952,85.834175 
	C91.083473,80.599594 90.624413,75.031303 89.063301,69.792267 
	C88.108704,66.588661 86.779106,62.354897 84.287331,60.959042 
	C75.814056,56.212429 66.749428,52.521435 57.910610,48.427353 
	C57.505997,48.811924 57.101383,49.196491 56.696770,49.581062 
	C59.152771,67.893158 62.898224,85.703918 77.633789,99.904434 
M149.898361,178.565796 
	C148.243469,172.461426 147.060013,166.179581 144.841949,160.287201 
	C139.063782,144.937225 141.205902,130.655075 149.151093,116.678993 
	C158.214828,100.735321 156.517624,89.045593 143.762405,76.088928 
	C138.675232,70.921402 138.598099,67.613945 143.436951,62.132286 
	C146.959869,58.141357 151.209091,57.405201 157.543304,59.688461 
	C161.317703,61.049000 163.198120,59.700947 162.808319,55.683006 
	C162.375168,51.217964 159.348221,48.697735 155.640839,46.766930 
	C153.748550,45.781418 151.026566,45.149879 150.203186,43.566193 
	C146.686310,36.801991 140.422272,35.356953 133.920044,34.489765 
	C124.888916,33.285301 115.861191,33.319611 106.781364,35.749813 
	C110.666710,43.001846 110.615639,42.976654 106.681679,50.951694 
	C105.064095,54.230900 103.715363,57.642967 102.252785,60.998280 
	C101.656105,62.367123 101.081841,63.745735 99.956383,66.391861 
	C98.642502,62.950768 98.101517,60.838223 97.071175,58.999958 
	C95.560555,56.304825 94.291573,52.649399 91.887886,51.419373 
	C80.115082,45.394970 68.000381,40.038712 55.978870,34.433418 
	C54.526005,39.756466 56.457657,44.154869 62.179096,46.987629 
	C67.984924,49.862179 74.027802,52.294121 80.080589,54.624538 
	C87.674034,57.548134 91.590271,62.438473 92.262352,70.977333 
	C93.316093,84.365417 98.093285,95.483871 113.197235,99.157959 
	C115.897003,99.814690 118.228966,104.024048 119.693512,107.088722 
	C120.920670,109.656616 120.925133,112.943398 120.971931,115.919716 
	C121.387016,142.319489 130.195984,166.468170 140.809875,190.119400 
	C141.556198,191.782471 143.224564,194.012955 144.693604,194.202637 
	C151.474335,195.078110 158.410248,196.129913 164.989120,192.899231 
	C164.866211,187.936859 162.704895,184.732803 158.008759,185.554703 
	C152.459381,186.525925 150.939743,183.684174 149.898361,178.565796 
M25.115013,156.567123 
	C21.926756,153.477936 17.975044,150.859863 15.715300,147.197723 
	C11.510548,140.383499 11.287369,132.761459 15.730518,125.896774 
	C20.039572,119.239265 26.692503,116.313232 34.644646,117.041924 
	C41.318180,117.653450 42.536766,120.464050 38.682007,125.712524 
	C35.309162,130.304840 35.301723,138.247772 38.711517,142.711899 
	C41.096371,139.961899 43.238266,136.965439 45.895828,134.532181 
	C52.338642,128.633194 51.933048,120.669189 44.681580,115.723686 
	C31.537945,106.759720 11.087490,114.128235 6.761353,129.386734 
	C1.940763,146.389191 12.275242,162.662506 30.543200,166.835129 
	C36.480564,168.191269 37.534206,167.339035 38.026409,160.962585 
	C33.911652,159.609085 29.843990,158.271088 25.115013,156.567123 
M19.795547,16.532598 
	C18.455147,12.948239 17.114744,9.363881 15.404514,4.790564 
	C11.947140,14.480752 10.394462,23.147045 15.957551,31.198029 
	C24.787634,43.977055 39.185398,47.263943 52.642204,52.665150 
	C52.973011,51.352314 53.192352,50.882362 53.195492,50.410965 
	C53.278988,37.870564 53.234653,37.969658 41.653210,33.232033 
	C33.139542,29.749348 24.713020,26.013145 19.795547,16.532598 
M23.821453,55.733150 
	C33.527878,60.894695 43.773632,64.322006 54.693211,65.894699 
	C55.705391,58.160355 54.581688,56.533173 48.549576,54.027229 
	C38.302345,49.770195 28.155649,45.264336 18.048351,40.682922 
	C15.952971,39.733131 14.213847,37.997387 11.479587,36.024223 
	C11.184446,46.029003 16.777178,50.944057 23.821453,55.733150 
M58.170166,79.067009 
	C59.345474,74.817413 57.603626,69.775734 54.298023,68.842941 
	C42.192410,65.426895 30.038923,62.180492 17.488014,58.756889 
	C18.327148,65.781700 22.737938,70.323959 28.945038,73.379814 
	C37.940624,77.808487 47.606300,79.272980 58.170166,79.067009 
M51.818810,81.797089 
	C45.709927,81.069672 39.601040,80.342255 33.492157,79.614830 
	C33.299759,80.086670 33.107361,80.558510 32.914963,81.030350 
	C33.884583,82.464958 34.588192,84.220192 35.867485,85.281517 
	C43.506321,91.618874 52.564720,91.806061 61.777103,90.679543 
	C62.450947,90.597153 63.514633,88.439796 63.328564,87.447487 
	C62.173119,81.285278 57.083141,82.195389 51.818810,81.797089 
M51.738548,96.301170 
	C55.493607,101.633507 63.747986,102.399055 71.079155,97.259697 
	C68.601669,95.626305 66.459778,93.041771 64.373024,93.085556 
	C60.192245,93.173256 56.041618,94.698357 51.738548,96.301170 
M81.775063,111.837723 
	C83.637390,114.969322 86.214699,114.243233 89.126587,109.766640 
	C79.081238,104.588371 77.346008,104.663330 71.279671,111.692238 
	C74.276703,111.501175 76.186699,111.346970 78.099800,111.268974 
	C79.354698,111.217812 80.614090,111.276810 81.775063,111.837723 
M72.421783,100.866150 
	C69.314919,102.089897 66.208061,103.313637 62.699467,104.695625 
	C67.329803,108.281410 71.985497,107.750809 76.544487,103.409218 
	C75.339172,102.548676 74.203285,101.737701 72.421783,100.866150 
z"/>
<path fill="#005678" opacity="1.000000" stroke="none" 
	d="
M77.354950,99.681519 
	C62.898224,85.703918 59.152771,67.893158 56.696770,49.581062 
	C57.101383,49.196491 57.505997,48.811924 57.910610,48.427353 
	C66.749428,52.521435 75.814056,56.212429 84.287331,60.959042 
	C86.779106,62.354897 88.108704,66.588661 89.063301,69.792267 
	C90.624413,75.031303 91.083473,80.599594 92.655952,85.834175 
	C95.043152,93.780869 100.553795,98.937714 108.699715,100.712296 
	C113.829048,101.829712 116.655540,104.727226 117.268593,109.746696 
	C118.495926,119.795532 119.559349,129.864380 120.881012,141.620026 
	C112.542122,133.007797 103.712418,132.923645 94.559113,135.610611 
	C87.649460,137.638916 81.596016,141.174576 76.948433,146.682205 
	C77.193062,147.082031 77.437698,147.481857 77.682327,147.881699 
	C79.090561,146.955322 80.506035,146.039749 81.905792,145.100754 
	C88.548973,140.644333 95.780273,137.781784 103.843056,137.688217 
	C113.284195,137.578644 119.229134,141.821396 121.612450,149.955612 
	C124.162117,158.657562 120.931633,167.463638 113.405037,172.175095 
	C110.407326,174.051575 107.344971,175.824753 104.755157,178.678085 
	C106.190758,178.812897 107.629646,178.919632 109.061394,179.087341 
	C115.586487,179.851685 120.893311,185.033722 121.558067,191.502380 
	C121.651558,192.412079 120.556549,194.285202 120.427567,194.248566 
	C118.835907,193.796341 117.321587,193.071884 116.058281,192.533218 
	C114.203918,193.270279 112.241447,194.715240 110.266731,194.732193 
	C90.773293,194.899475 71.277596,194.883316 51.783085,194.796265 
	C45.561535,194.768494 43.291630,192.294724 42.753513,185.955002 
	C42.514927,183.144150 42.451168,180.173416 41.465557,177.597641 
	C38.257378,169.213440 40.773712,161.960602 45.104744,154.859863 
	C51.502312,144.371002 60.773186,136.881790 70.542961,129.786591 
	C77.670013,124.610634 84.503860,119.019379 91.309296,113.419876 
	C93.123520,111.927132 94.352753,109.723419 95.551514,108.220940 
	C89.199005,105.272430 83.416397,102.588432 77.354950,99.681519 
z"/>
<path fill="#005678" opacity="1.000000" stroke="none" 
	d="
M149.998047,178.953217 
	C150.939743,183.684174 152.459381,186.525925 158.008759,185.554703 
	C162.704895,184.732803 164.866211,187.936859 164.989120,192.899231 
	C158.410248,196.129913 151.474335,195.078110 144.693604,194.202637 
	C143.224564,194.012955 141.556198,191.782471 140.809875,190.119400 
	C130.195984,166.468170 121.387016,142.319489 120.971931,115.919716 
	C120.925133,112.943398 120.920670,109.656616 119.693512,107.088722 
	C118.228966,104.024048 115.897003,99.814690 113.197235,99.157959 
	C98.093285,95.483871 93.316093,84.365417 92.262352,70.977333 
	C91.590271,62.438473 87.674034,57.548134 80.080589,54.624538 
	C74.027802,52.294121 67.984924,49.862179 62.179096,46.987629 
	C56.457657,44.154869 54.526005,39.756466 55.978870,34.433418 
	C68.000381,40.038712 80.115082,45.394970 91.887886,51.419373 
	C94.291573,52.649399 95.560555,56.304825 97.071175,58.999958 
	C98.101517,60.838223 98.642502,62.950768 99.956383,66.391861 
	C101.081841,63.745735 101.656105,62.367123 102.252785,60.998280 
	C103.715363,57.642967 105.064095,54.230900 106.681679,50.951694 
	C110.615639,42.976654 110.666710,43.001846 106.781364,35.749813 
	C115.861191,33.319611 124.888916,33.285301 133.920044,34.489765 
	C140.422272,35.356953 146.686310,36.801991 150.203186,43.566193 
	C151.026566,45.149879 153.748550,45.781418 155.640839,46.766930 
	C159.348221,48.697735 162.375168,51.217964 162.808319,55.683006 
	C163.198120,59.700947 161.317703,61.049000 157.543304,59.688461 
	C151.209091,57.405201 146.959869,58.141357 143.436951,62.132286 
	C138.598099,67.613945 138.675232,70.921402 143.762405,76.088928 
	C156.517624,89.045593 158.214828,100.735321 149.151093,116.678993 
	C141.205902,130.655075 139.063782,144.937225 144.841949,160.287201 
	C147.060013,166.179581 148.243469,172.461426 149.998047,178.953217 
z"/>
<path fill="#015575" opacity="1.000000" stroke="none" 
	d="
M25.445671,156.750092 
	C29.843990,158.271088 33.911652,159.609085 38.026409,160.962585 
	C37.534206,167.339035 36.480564,168.191269 30.543200,166.835129 
	C12.275242,162.662506 1.940763,146.389191 6.761353,129.386734 
	C11.087490,114.128235 31.537945,106.759720 44.681580,115.723686 
	C51.933048,120.669189 52.338642,128.633194 45.895828,134.532181 
	C43.238266,136.965439 41.096371,139.961899 38.711517,142.711899 
	C35.301723,138.247772 35.309162,130.304840 38.682007,125.712524 
	C42.536766,120.464050 41.318180,117.653450 34.644646,117.041924 
	C26.692503,116.313232 20.039572,119.239265 15.730518,125.896774 
	C11.287369,132.761459 11.510548,140.383499 15.715300,147.197723 
	C17.975044,150.859863 21.926756,153.477936 25.445671,156.750092 
z"/>
<path fill="#015577" opacity="1.000000" stroke="none" 
	d="
M19.959133,16.866205 
	C24.713020,26.013145 33.139542,29.749348 41.653210,33.232033 
	C53.234653,37.969658 53.278988,37.870564 53.195492,50.410965 
	C53.192352,50.882362 52.973011,51.352314 52.642204,52.665150 
	C39.185398,47.263943 24.787634,43.977055 15.957551,31.198029 
	C10.394462,23.147045 11.947140,14.480752 15.404514,4.790564 
	C17.114744,9.363881 18.455147,12.948239 19.959133,16.866205 
z"/>
<path fill="#015576" opacity="1.000000" stroke="none" 
	d="
M23.513300,55.537594 
	C16.777178,50.944057 11.184446,46.029003 11.479587,36.024223 
	C14.213847,37.997387 15.952971,39.733131 18.048351,40.682922 
	C28.155649,45.264336 38.302345,49.770195 48.549576,54.027229 
	C54.581688,56.533173 55.705391,58.160355 54.693211,65.894699 
	C43.773632,64.322006 33.527878,60.894695 23.513300,55.537594 
z"/>
<path fill="#015576" opacity="1.000000" stroke="none" 
	d="
M57.856522,79.180634 
	C47.606300,79.272980 37.940624,77.808487 28.945038,73.379814 
	C22.737938,70.323959 18.327148,65.781700 17.488014,58.756889 
	C30.038923,62.180492 42.192410,65.426895 54.298023,68.842941 
	C57.603626,69.775734 59.345474,74.817413 57.856522,79.180634 
z"/>
<path fill="#015575" opacity="1.000000" stroke="none" 
	d="
M52.267479,81.840958 
	C57.083141,82.195389 62.173119,81.285278 63.328564,87.447487 
	C63.514633,88.439796 62.450947,90.597153 61.777103,90.679543 
	C52.564720,91.806061 43.506321,91.618874 35.867485,85.281517 
	C34.588192,84.220192 33.884583,82.464958 32.914963,81.030350 
	C33.107361,80.558510 33.299759,80.086670 33.492157,79.614830 
	C39.601040,80.342255 45.709927,81.069672 52.267479,81.840958 
z"/>
<path fill="#015373" opacity="1.000000" stroke="none" 
	d="
M51.808548,95.965622 
	C56.041618,94.698357 60.192245,93.173256 64.373024,93.085556 
	C66.459778,93.041771 68.601669,95.626305 71.079155,97.259697 
	C63.747986,102.399055 55.493607,101.633507 51.808548,95.965622 
z"/>
<path fill="#025171" opacity="1.000000" stroke="none" 
	d="
M81.823265,111.562103 
	C80.614090,111.276810 79.354698,111.217812 78.099800,111.268974 
	C76.186699,111.346970 74.276703,111.501175 71.279671,111.692238 
	C77.346008,104.663330 79.081238,104.588371 89.126587,109.766640 
	C86.214699,114.243233 83.637390,114.969322 81.823265,111.562103 
z"/>
<path fill="#015373" opacity="1.000000" stroke="none" 
	d="
M72.744583,100.896439 
	C74.203285,101.737701 75.339172,102.548676 76.544487,103.409218 
	C71.985497,107.750809 67.329803,108.281410 62.699467,104.695625 
	C66.208061,103.313637 69.314919,102.089897 72.744583,100.896439 
z"/>
</svg>